<svg id="Layer_1" data-name="Layer 1" xmlns="http://www.w3.org/2000/svg" xmlns:xlink="http://www.w3.org/1999/xlink" viewBox="0 0 432 288"><defs><style>.cls-1{fill:url(#linear-gradient);}.cls-2{fill:url(#linear-gradient-2);}.cls-3{fill:#cae6cf;}.cls-4{fill:#2b7f3f;}.cls-5{fill:url(#linear-gradient-3);}.cls-6{fill:#37a952;}</style><linearGradient id="linear-gradient" x1="101.7" y1="64" x2="299.29" y2="64" gradientUnits="userSpaceOnUse"><stop offset="0.61" stop-color="#cae6cf"/><stop offset="1" stop-color="#97d0a2"/></linearGradient><linearGradient id="linear-gradient-2" x1="123.72" y1="59.09" x2="216.8" y2="220.29" gradientUnits="userSpaceOnUse"><stop offset="0" stop-color="#97d0a2"/><stop offset="0.63" stop-color="#badfc1"/><stop offset="1" stop-color="#cae6cf"/></linearGradient><linearGradient id="linear-gradient-3" x1="175.06" y1="120.31" x2="261.91" y2="151.92" gradientUnits="userSpaceOnUse"><stop offset="0.42" stop-color="#2b7f3f"/><stop offset="0.56" stop-color="#37a952"/></linearGradient></defs><path class="cls-1" d="M188.31,43.18A43.27,43.27,0,0,1,200.82,52l8.34,8.43,9-7.74C229.86,42.59,244.38,38.38,258,41.16c13.81,2.81,25.4,12.48,32.64,27.21,6.82,13.89,8.55,29.48,6.28,45.8.16-.48.33-1,.48-1.46,9.54-30.64,10-75.29-29-95-1.73-.53-3.5-1-5.32-1.38-17.94-3.66-36.63.18-52.66,10.57-17.09-12.5-38.88-16.21-60.32-10.28C118.61,25.28,100.42,46.37,92,80a77.87,77.87,0,0,1,8.79-20.39C118.74,30.43,162.58,21.3,188.31,43.18Z"/><path class="cls-2" d="M144.49,161.69c-39.41-41.39-24.72-98.07.42-115.51a40.52,40.52,0,0,1,22.56-7.09c1.25,0,2.52,0,3.81.1a43.46,43.46,0,0,1,17,4c-25.73-21.88-69.57-12.75-87.55,16.47A77.87,77.87,0,0,0,92,80c-.27,1.09-.56,2.16-.82,3.27l-.06.26c-6.08,27.15,1.3,60.11,29.31,91.2,20.39,22.62,68.51,72.38,76.21,106.51l10.18-42.46C201.43,225.06,169.45,187.89,144.49,161.69Z"/><path class="cls-3" d="M271,18.54l-.47-.16c-.72-.25-1.46-.47-2.2-.7,39,19.74,38.55,64.39,29,95-.15.49-.32,1-.48,1.46-14.24,44.05-56.08,98.44-90.11,124.65l-10.18,42.46c51.55-30.86,119.9-122.07,126.92-173.86C329,66.8,315.32,34,271,18.54Z"/><path class="cls-4" d="M123.62,78.9h-15v53.84a7.44,7.44,0,0,1-.61,3,7.64,7.64,0,0,1-1.63,2.42,7.54,7.54,0,0,1-2.39,1.6,7.77,7.77,0,0,1-5.89,0,7.54,7.54,0,0,1-2.39-1.6,7.4,7.4,0,0,1-1.6-2.42,7.6,7.6,0,0,1-.58-3V78.9H78.41v53.84a7.6,7.6,0,0,1-.58,3,7.4,7.4,0,0,1-1.6,2.42,7.66,7.66,0,0,1-2.39,1.6,7.46,7.46,0,0,1-3,.58,7.38,7.38,0,0,1-2.94-.58,7.54,7.54,0,0,1-2.39-1.6A7.43,7.43,0,0,1,64,135.71a7.78,7.78,0,0,1-.58-3V78.9H48.28v53.84a22.07,22.07,0,0,0,1.77,8.8,22.38,22.38,0,0,0,12,12,22.06,22.06,0,0,0,8.8,1.76,22.78,22.78,0,0,0,8.1-1.47,21.66,21.66,0,0,0,7-4.31,21.74,21.74,0,0,0,7,4.31,22.55,22.55,0,0,0,8.08,1.47,22.1,22.1,0,0,0,8.8-1.76,22.46,22.46,0,0,0,12-12,22.23,22.23,0,0,0,1.76-8.8Z"/><path class="cls-4" d="M171.33,136.08a13.36,13.36,0,0,1-3.05,2.62,14.49,14.49,0,0,1-3.65,1.66,14,14,0,0,1-4,.58c-.56,0-1.12,0-1.68-.08a8.44,8.44,0,0,1-1.69-.34l26.92-32.44a28.83,28.83,0,0,0-4.62-5.13,29.35,29.35,0,0,0-5.66-3.86,28.86,28.86,0,0,0-6.38-2.42,28.38,28.38,0,0,0-6.89-.84A29,29,0,0,0,149.41,98a27.85,27.85,0,0,0-9.15,6,28.21,28.21,0,0,0-6.18,9.41,32,32,0,0,0-2.26,12.2,31,31,0,0,0,2.26,12,28.8,28.8,0,0,0,6.18,9.38,28.34,28.34,0,0,0,20.32,8.36,29,29,0,0,0,6.86-.81,27.84,27.84,0,0,0,6.36-2.39A28.78,28.78,0,0,0,184,143.2l-10.52-10.57A13.79,13.79,0,0,1,171.33,136.08Zm-23.47-3a7.19,7.19,0,0,1-.68-1.69,19,19,0,0,1-.45-2c-.13-.68-.21-1.36-.27-2s-.07-1.26-.07-1.79a17.09,17.09,0,0,1,1.1-6.33,14.47,14.47,0,0,1,3-4.81,13.17,13.17,0,0,1,4.52-3.08,14.37,14.37,0,0,1,5.55-1.08,18.65,18.65,0,0,1,2,.11,8.61,8.61,0,0,1,2,.47Z"/><path class="cls-5" d="M212.63,196a48.92,48.92,0,0,1-41.8-23.26A7.31,7.31,0,0,1,183.25,165a34.57,34.57,0,0,0,58.29.74,7.31,7.31,0,0,1,12.21,8A49.06,49.06,0,0,1,212.63,196ZM205.79,75.59H191.34v78.7h14.45Zm25.4,0H216.73v78.7h14.46Z"/><path class="cls-6" d="M281.23,154.29V140H270.35a10.7,10.7,0,0,1-4.26-.86,11.17,11.17,0,0,1-3.47-2.34,10.78,10.78,0,0,1-2.31-3.45,10.65,10.65,0,0,1-.84-4.23V112.39h21.76V98.09H259.47V75.59h-14.3v22.5h-7v14.3h7v16.72a24.52,24.52,0,0,0,2,9.78,25.45,25.45,0,0,0,13.43,13.43,24.52,24.52,0,0,0,9.78,2Z"/><path class="cls-6" d="M341.43,113.42a28.65,28.65,0,0,0-6.15-9.41A27.19,27.19,0,0,0,326.16,98a29.5,29.5,0,0,0-11.23-2.13,28,28,0,0,0-11.17,2.26,28.54,28.54,0,0,0-15.32,15.67,30.7,30.7,0,0,0-2.26,11.88,30.26,30.26,0,0,0,2.26,11.75,28.79,28.79,0,0,0,15.32,15.67,28.65,28.65,0,0,0,22.4,0,28.85,28.85,0,0,0,9.12-6.26,29.51,29.51,0,0,0,6.15-9.41,30.26,30.26,0,0,0,2.26-11.75A31.74,31.74,0,0,0,341.43,113.42ZM328.1,131.9a14.57,14.57,0,0,1-3.07,4.83,13.68,13.68,0,0,1-4.55,3.1,14,14,0,0,1-5.55,1.11,13.34,13.34,0,0,1-5.54-1.18,14.08,14.08,0,0,1-4.52-3.24,15.23,15.23,0,0,1-3-4.83,16.43,16.43,0,0,1-1.1-6,17.17,17.17,0,0,1,1.1-6.28,14.84,14.84,0,0,1,3-4.84,13,13,0,0,1,4.52-3.1,14.77,14.77,0,0,1,11.09,0,13.39,13.39,0,0,1,4.55,3.1,14.93,14.93,0,0,1,3.07,4.84,18,18,0,0,1,0,12.54Z"/><path class="cls-6" d="M390.32,154.29V140H379.44a10.7,10.7,0,0,1-4.26-.86,11.17,11.17,0,0,1-3.47-2.34,10.78,10.78,0,0,1-2.31-3.45,10.65,10.65,0,0,1-.84-4.23V112.39h21.76V98.09H368.56V75.59h-14.3v22.5h-7v14.3h7v16.72a24.35,24.35,0,0,0,2,9.78,25.36,25.36,0,0,0,13.43,13.43,24.52,24.52,0,0,0,9.78,2Z"/></svg>